<svg xmlns="http://www.w3.org/2000/svg" viewBox="44.5 48 566 566" width="512" height="512" role="img" aria-label="Talyvor mark"><title>Talyvor mark</title><defs><linearGradient id="ag0" gradientUnits="userSpaceOnUse" x1="58" y1="48" x2="462" y2="298"><stop offset="0" stop-color="#F7FAFD"/><stop offset="1" stop-color="#BCCFE0"/></linearGradient><linearGradient id="ag1" gradientUnits="userSpaceOnUse" x1="58" y1="216" x2="396" y2="331"><stop offset="0" stop-color="#E6EEF7"/><stop offset="1" stop-color="#B3C6D8"/></linearGradient><linearGradient id="ag2" gradientUnits="userSpaceOnUse" x1="58" y1="446" x2="396" y2="331"><stop offset="0" stop-color="#C6D5E4"/><stop offset="1" stop-color="#97ADC2"/></linearGradient><linearGradient id="ag3" gradientUnits="userSpaceOnUse" x1="58" y1="614" x2="462" y2="364"><stop offset="0" stop-color="#25B4A1"/><stop offset="1" stop-color="#4CD8C5"/></linearGradient><linearGradient id="ag4" gradientUnits="userSpaceOnUse" x1="412" y1="434" x2="598" y2="228"><stop offset="0" stop-color="#33CBB6"/><stop offset="1" stop-color="#7FE6DA"/></linearGradient></defs><path fill="url(#ag0)" d="M58 52Q58 48 62 48L89.32 48C283.7 48 276.73 228 397.9 228L464.57 298L398.08 298C211.52 298 246.28 127 90.37 127L62 127Q58 127 58 123Z"/><path fill="url(#ag1)" d="M58 220Q58 216 62 216L138.61 216C199.23 216 200.46 331 402 331L197.86 331C153.13 313.86 149.25 287 118.28 287L62 287Q58 287 58 283Z"/><path fill="url(#ag2)" d="M58 442Q58 446 62 446L138.61 446C199.23 446 200.46 331 402 331L197.86 331C153.13 348.14 149.25 375 118.28 375L62 375Q58 375 58 379Z"/><path fill="url(#ag3)" d="M58 610Q58 614 62 614L89.32 614C283.7 614 276.73 434 397.9 434L464.57 364L398.08 364C211.52 364 246.28 535 90.37 535L62 535Q58 535 58 539Z"/><path fill="url(#ag4)" d="M407.9 228L512.77 228Q517.77 228 520.82 231.96L594.56 327.83Q597 331 594.56 334.17L520.82 430.04Q517.77 434 512.77 434L407.9 434L506 331Z"/></svg>